<?xml version="1.0" encoding="iso-8859-1"?>
<!-- Generator: Adobe Illustrator 19.0.0, SVG Export Plug-In . SVG Version: 6.00 Build 0)  -->
<svg version="1.1" id="Capa_1" xmlns="http://www.w3.org/2000/svg" xmlns:xlink="http://www.w3.org/1999/xlink" x="0px" y="0px"
	 viewBox="0 0 480 480" style="enable-background:new 0 0 480 480;" xml:space="preserve">
<linearGradient id="SVGID_1_" gradientUnits="userSpaceOnUse" x1="-18.1066" y1="574.0817" x2="-45.1416" y2="527.2508" gradientTransform="matrix(8 0 0 -8 455 4725)">
	<stop  offset="0" style="stop-color:#40E0D0"/>
	<stop  offset="0.514" style="stop-color:#FF8C00"/>
	<stop  offset="1" style="stop-color:#FF0080"/>
</linearGradient>
<path style="fill:url(#SVGID_1_);" d="M472,440h-8V296c0-4.8-3.2-8-8-8h-96c-4.8,0-8,3.2-8,8v144h-56V168c0-4.8-3.2-8-8-8h-96
	c-4.8,0-8,3.2-8,8v272h-56V32c0-4.8-3.2-8-8-8H24c-4.8,0-8,3.2-8,8v408H8c-4.8,0-8,3.2-8,8s3.2,8,8,8h464c4.8,0,8-3.2,8-8
	S476.8,440,472,440z M368,304h80v136h-80V304z M200,176h80v264h-80V176z M32,40h80v400H32V40z"/>
<g>
</g>
<g>
</g>
<g>
</g>
<g>
</g>
<g>
</g>
<g>
</g>
<g>
</g>
<g>
</g>
<g>
</g>
<g>
</g>
<g>
</g>
<g>
</g>
<g>
</g>
<g>
</g>
<g>
</g>
</svg>
