<?xml version="1.0" encoding="iso-8859-1"?>
<!-- Generator: Adobe Illustrator 19.0.0, SVG Export Plug-In . SVG Version: 6.00 Build 0)  -->
<svg version="1.1" id="Layer_1" xmlns="http://www.w3.org/2000/svg" xmlns:xlink="http://www.w3.org/1999/xlink" x="0px" y="0px"
	 viewBox="0 0 496.2 496.2" style="enable-background:new 0 0 496.2 496.2;" xml:space="preserve">
<path style="fill:#F26101;" d="M0,248.1C0,111.1,111.1,0,248.1,0s248.1,111.1,248.1,248.1S385.1,496.2,248.1,496.2S0,385.1,0,248.1z
	"/>
<g style="opacity:0.22;">
	<path style="fill:#BF4602;" d="M132.1,365.5V102.9h-9.3v29.6h-12.3v9.8h12.3v19.4h-12.3v9.7h12.3v19.4h-12.3v9.8h12.3v19.5h-12.3
		v9.8h12.3v19.4h-12.3v9.8h12.3v19.4h-12.3v9.7h12.3v19.4h-12.3v9.8h12.3v19.4h-12.3v9.8h12.3v18.9H101v9.3h21.8v22.5h9.3v-22.5
		h19.5v12.3h9.8v-12.3h19.4v12.3h9.8v-12.3H210v12.3h9.8v-12.3h19.3v12.3h9.8v-12.3h19.4v12.3h9.8v-12.3h19.4v12.3h9.7v-12.3h19.4
		v12.3h9.8v-12.3h19.4v12.3h9.8v-12.3h29.7v-9.3L132.1,365.5L132.1,365.5z"/>
</g>
<path style="fill:#FFFFFF;" d="M132.1,361.6V99h-9.3v29.6h-12.3v9.8h12.3v19.4h-12.3v9.7h12.3v19.4h-12.3v9.8h12.3v19.4h-12.3v9.8
	h12.3v19.4h-12.3v9.8h12.3v19.4h-12.3v9.7h12.3v19.4h-12.3v9.8h12.3v19.4h-12.3v9.8h12.3v18.9H101v9.3h21.8v22.5h9.3v-22.5h19.5
	v12.3h9.8v-12.3h19.4v12.3h9.8v-12.3H210v12.3h9.8v-12.3h19.3v12.3h9.8v-12.3h19.4v12.3h9.8v-12.3h19.4v12.3h9.7v-12.3h19.4v12.3
	h9.8v-12.3h19.4v12.3h9.8v-12.3h29.7v-9.3H132.1V361.6z"/>
<g>
	<rect x="147.9" y="227.1" style="fill:#EBE3CB;" width="15.7" height="125.7"/>
	<rect x="206.8" y="219.2" style="fill:#EBE3CB;" width="15.7" height="133.6"/>
	<rect x="261.8" y="234.9" style="fill:#EBE3CB;" width="15.7" height="117.9"/>
	<rect x="320.8" y="219.2" style="fill:#EBE3CB;" width="15.7" height="133.6"/>
	<rect x="179.3" y="286" style="fill:#EBE3CB;" width="15.7" height="66.8"/>
	<rect x="238.3" y="282.1" style="fill:#EBE3CB;" width="15.7" height="70.7"/>
	<rect x="293.3" y="289.9" style="fill:#EBE3CB;" width="15.7" height="62.9"/>
	<rect x="352.2" y="282.1" style="fill:#EBE3CB;" width="15.7" height="70.7"/>
</g>
<g style="opacity:0.4;">
	
		<rect x="155.215" y="162.685" transform="matrix(-0.7071 -0.7071 0.7071 -0.7071 150.261 391.5106)" style="fill:#FFFFFF;" width="2" height="3.9"/>
	<path style="fill:#FFFFFF;" d="M175.8,187l-2.5-2.5l2.8-2.8l2.5,2.5L175.8,187z M170.7,181.9l-2.5-2.5l2.8-2.8l2.5,2.5L170.7,181.9
		z M165.6,176.9l-2.5-2.5l2.8-2.8l2.5,2.5L165.6,176.9z M160.6,171.8l-2.5-2.5l2.8-2.8l2.5,2.5L160.6,171.8z"/>
	
		<rect x="179.426" y="186.838" transform="matrix(-0.7071 -0.7071 0.7071 -0.7071 174.5126 449.8618)" style="fill:#FFFFFF;" width="2" height="3.9"/>
	<path style="fill:#FFFFFF;" d="M182.5,190.8l-2.9-2.7l2.7-2.9l2.9,2.7L182.5,190.8z M187.8,185l-2.9-2.7l2.7-2.9l2.9,2.7L187.8,185
		z M193.1,179.3l-2.9-2.7l2.7-2.9l2.9,2.7L193.1,179.3z M198.5,173.5l-2.9-2.7l2.7-2.9l2.9,2.7L198.5,173.5z M203.8,167.7l-2.9-2.7
		l2.7-2.9l2.9,2.7L203.8,167.7z M209.1,161.9l-2.9-2.7l2.7-2.9l2.9,2.7L209.1,161.9z M214.4,156.1l-2.9-2.7l1.7-1.9l2.9,2.7
		L214.4,156.1z"/>
	<path style="fill:#FFFFFF;" d="M240.2,204.2l-1.1-2l3.5-1.9l1.1,2L240.2,204.2z M237.3,198.8l-1.9-3.5l3.5-1.9l1.9,3.5L237.3,198.8
		z M233.6,191.9l-1.9-3.5l3.5-1.9l1.9,3.5L233.6,191.9z M229.8,184.9l-1.9-3.5l3.5-1.9l1.9,3.5L229.8,184.9z M226.1,178l-1.9-3.5
		l3.5-1.9l1.9,3.5L226.1,178z M222.3,171.1l-1.9-3.5l3.5-1.9l1.9,3.5L222.3,171.1z M218.6,164.2l-1.9-3.5l3.5-1.9l1.9,3.5
		L218.6,164.2z M214.8,157.3l-1.9-3.5l3.5-1.9l1.9,3.5L214.8,157.3z"/>
	<path style="fill:#FFFFFF;" d="M243.4,204.5l-3-2.6l2.6-3l3,2.6L243.4,204.5z M248.6,198.6l-3-2.6l2.6-3l3,2.6L248.6,198.6z
		 M253.7,192.7l-3-2.6l2.6-3l3,2.6L253.7,192.7z M258.9,186.7l-3-2.6l2.6-3l3,2.6L258.9,186.7z M264,180.8l-3-2.6l2.6-3l3,2.6
		L264,180.8z M269.2,174.8l-3-2.6l2-2.3l3,2.6L269.2,174.8z"/>
	<path style="fill:#FFFFFF;" d="M299.3,216.3l-2.3-2.9l3.1-2.4l2.3,2.9L299.3,216.3z M294.6,210.2l-2.4-3.1l3.1-2.4l2.4,3.1
		L294.6,210.2z M289.8,204l-2.4-3.1l3.1-2.4l2.4,3.1L289.8,204z M284.9,197.9l-2.4-3.1l3.1-2.4l2.4,3.1L284.9,197.9z M280,191.7
		l-2.4-3.1l3.1-2.4l2.4,3.1L280,191.7z M275.2,185.5l-2.4-3.1l3.1-2.4l2.4,3.1L275.2,185.5z M270.3,179.3l-2.4-3.1l3.1-2.4l2.4,3.1
		L270.3,179.3z"/>
	<path style="fill:#FFFFFF;" d="M302.5,216.2l-3.2-2.3l2.3-3.2l3.2,2.2L302.5,216.2z M307,209.7l-3.2-2.3l2.3-3.2l3.2,2.3L307,209.7
		z M311.5,203.3l-3.2-2.3l2.2-3.2l3.2,2.3L311.5,203.3z M316,196.9l-3.2-2.3l2.3-3.2l3.2,2.3L316,196.9z M320.5,190.4l-3.2-2.2
		l2.3-3.2l3.2,2.3L320.5,190.4z M325,184l-3.2-2.2l2.3-3.2l3.2,2.3L325,184z M329.5,177.5l-3.2-2.3l0.5-0.7l3.2,2.3L329.5,177.5z"/>
	<path style="fill:#FFFFFF;" d="M358.3,216.3l-2-2.5l3.1-2.5l2,2.5L358.3,216.3z M353.9,210.7l-2.5-3.1l3.1-2.5l2.5,3.1L353.9,210.7
		z M348.9,204.6l-2.5-3.1l3.1-2.5l2.5,3.1L348.9,204.6z M344,198.5l-2.5-3.1l3.1-2.5l2.5,3.1L344,198.5z M339.1,192.3l-2.5-3.1
		l3.1-2.5l2.5,3.1L339.1,192.3z M334.2,186.2l-2.5-3.1l3.1-2.4l2.5,3.1L334.2,186.2z M329.3,180l-2.5-3.1l3.1-2.5l2.5,3.1L329.3,180
		z"/>
</g>
<g>
	<circle style="fill:#F1D648;" cx="155.5" cy="164" r="11"/>
	<circle style="fill:#F1D648;" cx="183" cy="187.5" r="11"/>
	<circle style="fill:#F1D648;" cx="214.5" cy="156.1" r="11"/>
	<path style="fill:#F1D648;" d="M230.9,203.3c0-6.1,4.9-11,11-11s11,4.9,11,11s-5,11-11,11C235.9,214.3,230.9,209.4,230.9,203.3z"/>
	<path style="fill:#F1D648;" d="M258.4,175.8c0-6.1,5-11,11-11c6.1,0,11,4.9,11,11s-4.9,11-11,11
		C263.4,186.8,258.4,181.9,258.4,175.8z"/>
	<path style="fill:#F1D648;" d="M289.8,215c0-6.1,5-11,11-11c6.1,0,11,4.9,11,11s-4.9,11-11,11C294.8,226.1,289.8,221.1,289.8,215z"
		/>
	<circle style="fill:#F1D648;" cx="328.4" cy="175.8" r="11"/>
	<circle style="fill:#F1D648;" cx="359.8" cy="215" r="11"/>
</g>
<g>
</g>
<g>
</g>
<g>
</g>
<g>
</g>
<g>
</g>
<g>
</g>
<g>
</g>
<g>
</g>
<g>
</g>
<g>
</g>
<g>
</g>
<g>
</g>
<g>
</g>
<g>
</g>
<g>
</g>
</svg>
