<?xml version="1.0" encoding="iso-8859-1"?>
<!-- Generator: Adobe Illustrator 19.0.0, SVG Export Plug-In . SVG Version: 6.00 Build 0)  -->
<svg version="1.1" id="Layer_1" xmlns="http://www.w3.org/2000/svg" xmlns:xlink="http://www.w3.org/1999/xlink" x="0px" y="0px"
	 viewBox="0 0 473.961 473.961" style="enable-background:new 0 0 473.961 473.961;" xml:space="preserve">
<g>
	<path style="fill:#EFC849;" d="M0.004,236.973C0.004,106.09,106.101,0,236.977,0C367.86,0,473.958,106.094,473.958,236.973
		c0,130.887-106.098,236.988-236.981,236.988C106.105,473.961,0.004,367.864,0.004,236.973z"/>
	<path style="fill:#EFC849;" d="M36.347,363.033c3.712,5.893,7.652,11.622,11.854,17.156v-17.156H36.347z"/>
	<path style="fill:#EFC849;" d="M48.201,93.769c-5.066,6.668-9.807,13.598-14.155,20.793h14.155V93.769z"/>
</g>
<g>
	<path style="fill:#357180;" d="M128.728,291.345c-0.217-7.18-6.073-12.95-13.302-12.95h-14.743c-7.237,0-13.096,5.77-13.306,12.95
		h-0.041v97.159h41.433v-97.159H128.728z"/>
	<path style="fill:#357180;" d="M194.549,258.795c-0.34-7.072-6.125-12.707-13.276-12.707h-14.743
		c-7.151,0-12.939,5.635-13.283,12.707h-0.067v129.708h41.433V258.795H194.549z"/>
	<path style="fill:#357180;" d="M260.445,212.678c-0.079-7.3-6.013-13.193-13.328-13.193h-14.746
		c-7.326,0-13.25,5.893-13.332,13.193h-0.011v0.086c0,0.026-0.004,0.041-0.004,0.056c0,0.026,0.004,0.041,0.004,0.064v175.623
		h41.433V212.682h-0.015V212.678z"/>
	<path style="fill:#357180;" d="M326.33,180.753c0-0.086-0.026-0.157-0.026-0.236v-0.15h-0.007
		c-0.21-7.188-6.069-12.965-13.306-12.965h-14.743c-7.244,0-13.104,5.777-13.306,12.965h-0.064v208.135h41.429V180.974
		C326.304,180.899,326.33,180.821,326.33,180.753z"/>
	<path style="fill:#357180;" d="M392.163,145.311c0-0.03-0.011-0.056-0.011-0.082v-0.37h-0.034
		c-0.247-7.154-6.084-12.887-13.302-12.887h-14.743c-7.214,0-13.051,5.732-13.294,12.887h-0.056v243.645h41.429v-243.11
		C392.151,145.371,392.163,145.337,392.163,145.311z"/>
</g>
<g>
	<path style="fill:#FFFFFF;" d="M31.685,114.558v4.108c0.79-1.369,1.545-2.758,2.361-4.108H31.685z"/>
	<path style="fill:#FFFFFF;" d="M392.151,388.503h-41.433h-24.415h-41.429H260.46h-41.433h-24.415h-41.429h-24.415H87.336H60.669
		V78.674c-4.359,4.853-8.516,9.889-12.468,15.091v20.793H34.046c-0.816,1.347-1.572,2.735-2.361,4.108v8.995h16.516v26.114H31.685
		v13.122h16.516v26.11H31.685v13.107h16.516v26.121H31.685v13.111h16.516v26.106H31.685v13.126h16.516v26.114H31.685v13.119h16.516
		v26.117H31.685v5.362c1.508,2.612,3.057,5.201,4.662,7.745h11.854v17.156c5.523,7.263,11.472,14.181,17.777,20.756h20.965v16.509
		h13.111v-16.509h26.114v16.509h13.111v-16.509h26.091v16.509h13.141v-16.509h26.095v16.509h13.107v-16.509h26.117v16.509h13.107
		v-16.509h26.117v16.509h13.1v-16.509h26.132v16.509h13.107v-16.509h26.11v16.509h13.119v-16.509h33.354
		c3.862-4.022,7.611-8.153,11.18-12.441h-27.008V388.503z"/>
</g>
<g>
</g>
<g>
</g>
<g>
</g>
<g>
</g>
<g>
</g>
<g>
</g>
<g>
</g>
<g>
</g>
<g>
</g>
<g>
</g>
<g>
</g>
<g>
</g>
<g>
</g>
<g>
</g>
<g>
</g>
</svg>
