<svg height="512pt" viewBox="0 0 512 512" width="512pt" xmlns="http://www.w3.org/2000/svg"><path d="m448 256c0 106.039062-85.960938 192-192 192s-192-85.960938-192-192 85.960938-192 192-192 192 85.960938 192 192zm0 0" fill="#fff3f3"/><path d="m256 64v384c106.039062 0 192-85.960938 192-192s-85.960938-192-192-192zm0 0" fill="#d9effe"/><path d="m437.019531 74.980469c-23.878906-23.878907-51.828125-42.550781-83.058593-55.492188-31.222657-12.929687-64.179688-19.488281-97.960938-19.488281s-66.738281 6.558594-97.960938 19.488281c-28.917968 11.980469-55.027343 28.882813-77.6875 50.28125-1.820312 1.710938-3.601562 3.441407-5.371093 5.210938-2.808594 2.980469-4.21875 6.789062-4.21875 10.597656 0 3.960937 1.519531 7.921875 4.527343 10.933594l56.769532 56.769531 10.613281-10.609375c29.828125-29.832031 71.136719-46.941406 113.328125-46.941406s83.5 17.109375 113.328125 46.941406l5.230469 5.226563 59.800781-7.886719 7.890625-59.800781zm0 0" fill="#ffef00"/><path d="m142.671875 369.328125c-29.832031-29.828125-46.941406-71.136719-46.941406-113.328125s17.109375-83.5 46.941406-113.328125l5.226563-5.230469-7.886719-59.800781-59.660157-7.871094c-1.820312 1.710938-3.601562 3.441407-5.371093 5.210938-23.878907 23.878906-42.550781 51.828125-55.492188 83.058593-12.929687 31.222657-19.488281 64.179688-19.488281 97.960938s6.558594 66.738281 19.488281 97.960938c11.980469 28.917968 28.882813 55.027343 50.28125 77.6875 1.710938 1.820312 3.441407 3.601562 5.210938 5.371093 2.929687 2.929688 6.769531 4.402344 10.609375 4.402344s7.679687-1.472656 10.609375-4.402344l57.082031-57.078125zm0 0" fill="#0cf"/><path d="m437.019531 415.808594-57.078125-57.089844-10.613281 10.609375c-29.828125 29.832031-71.136719 46.941406-113.328125 46.941406s-83.5-17.109375-113.328125-46.941406l-5.230469-5.226563-59.800781 7.886719-7.871094 59.660157c1.710938 1.820312 3.441407 3.601562 5.210938 5.371093 23.878906 23.878907 51.828125 42.550781 83.058593 55.492188 31.222657 12.929687 64.179688 19.488281 97.960938 19.488281s66.738281-6.558594 97.960938-19.488281c15.617187-6.472657 30.410156-14.371094 44.289062-23.640625 13.871094-9.269532 26.828125-19.910156 38.769531-31.851563 5.859375-5.859375 5.859375-15.359375 0-21.210937zm0 0" fill="#ff4359"/><path d="m441.421875 426.410156c0 3.839844-1.472656 7.679688-4.402344 10.609375-1.769531 1.769531-3.550781 3.5-5.371093 5.210938-22.660157 21.398437-48.769532 38.300781-77.6875 50.28125-31.222657 12.929687-64.179688 19.488281-97.960938 19.488281v-95.730469c42.191406 0 83.5-17.109375 113.328125-46.941406l10.613281-10.609375 57.078125 57.089844c2.929688 2.929687 4.402344 6.761718 4.402344 10.601562zm0 0" fill="#e2095a"/><path d="m492.511719 158.039062c-6.472657-15.617187-14.371094-30.410156-23.640625-44.289062-9.269532-13.871094-19.910156-26.828125-31.851563-38.769531-5.859375-5.859375-15.359375-5.859375-21.210937 0l-57.089844 57.078125 10.609375 10.613281c29.832031 29.828125 46.941406 71.136719 46.941406 113.328125s-17.109375 83.5-46.941406 113.328125l-5.226563 5.230469 7.886719 59.800781 59.660157 7.871094c1.820312-1.710938 3.601562-3.441407 5.371093-5.210938 23.878907-23.878906 42.550781-51.828125 55.492188-83.058593 12.929687-31.222657 19.488281-64.179688 19.488281-97.960938s-6.558594-66.738281-19.488281-97.960938zm0 0" fill="#14db72"/><g fill="#003fa1"><path d="m176 241h160v30h-160zm0 0"/><path d="m198 181h116v30h-116zm0 0"/><path d="m206 301h100v30h-100zm0 0"/></g><path d="m369.328125 142.671875 5.234375 5.230469 59.792969-7.894532 7.898437-59.792968-5.234375-5.234375c-23.882812-23.882813-51.828125-42.550781-83.054687-55.488281-31.230469-12.933594-64.1875-19.492188-97.964844-19.492188v95.726562c42.191406 0 83.496094 17.113282 113.328125 46.945313zm0 0" fill="#ffc600"/><path d="m256 241h80v30h-80zm0 0" fill="#00245e"/><path d="m256 181h58v30h-58zm0 0" fill="#00245e"/><path d="m256 301h50v30h-50zm0 0" fill="#00245e"/></svg>