<svg height="436pt" viewBox="-83 0 436 436.00711" width="436pt" xmlns="http://www.w3.org/2000/svg"><path d="m259.984375 122.832031h-84.335937l45-109.015625c1.273437-3.085937.925781-6.601562-.929688-9.375-1.855469-2.773437-4.972656-4.441406-8.308594-4.441406h-179.53125c-5.164062 0-9.476562 3.929688-9.957031 9.070312l-21.875 234.5c-.261719 2.800782.667969 5.585938 2.566406 7.664063 1.894531 2.082031 4.578125 3.265625 7.390625 3.265625h70.863282l-9.988282 170.921875c-.269531 4.582031 2.613282 8.757813 6.992188 10.128906 4.378906 1.371094 9.132812-.414062 11.523437-4.328125l179.121094-293.175781c1.886719-3.085937 1.960937-6.953125.191406-10.105469-1.769531-3.15625-5.105469-5.109375-8.722656-5.109375zm-166.804687 263.828125 8.273437-141.582031c.160156-2.746094-.820313-5.441406-2.707031-7.445313-1.890625-2-4.523438-3.136718-7.273438-3.136718h-70.492187l20.011719-214.496094h155.46875l-45 109.015625c-1.269532 3.085937-.921876 6.601563.933593 9.375s4.976563 4.441406 8.3125 4.4375h81.453125zm0 0"/></svg>