<?xml version="1.0" encoding="iso-8859-1"?>
<!-- Generator: Adobe Illustrator 19.0.0, SVG Export Plug-In . SVG Version: 6.00 Build 0)  -->
<svg version="1.1" id="Capa_1" xmlns="http://www.w3.org/2000/svg" xmlns:xlink="http://www.w3.org/1999/xlink" x="0px" y="0px"
	 viewBox="0 0 464 464" style="enable-background:new 0 0 464 464;" xml:space="preserve">
<g>
	<g>
		<path d="M433.833,114.351h-77.35c-4.121,0.023-7.831-2.492-9.337-6.328l-15.382-40.272c-4.473-11.602-15.579-19.294-28.013-19.4
			h-142.5c-12.442,0.128-23.546,7.837-28.013,19.45l-15.381,40.127c-1.496,3.858-5.202,6.407-9.34,6.423h-78.35
			C13.538,114.443,0.083,127.907,0,144.536v216.142c0,16.542,13.625,29.673,30.167,29.673h144.247
			c47.329,33.731,110.843,33.731,158.172,0h101.247c16.542,0,30.167-13.131,30.167-29.673V144.536
			C463.917,127.907,450.462,114.443,433.833,114.351z M253.5,395.976c-64.328-0.073-116.458-52.203-116.53-116.531
			c0.001-64.358,52.173-116.53,116.531-116.529s116.53,52.173,116.529,116.531C370.029,343.804,317.857,395.976,253.5,395.976z
			 M444,360.678c-0.113,5.457-4.628,9.788-10.085,9.675c-0.027-0.001-0.055-0.001-0.082-0.002h-78.852
			c22.613-24.935,35.111-57.409,35.049-91.07c0-75.283-61.247-136.449-136.53-136.449s-136.53,61.125-136.53,136.409
			c-0.062,33.673,12.435,66.16,35.049,91.11H30.167c-5.455,0.159-10.006-4.135-10.165-9.591c-0.001-0.027-0.001-0.055-0.002-0.082
			V144.536c0.069-5.589,4.578-10.106,10.167-10.185h78.35c12.394-0.011,23.514-7.62,28.013-19.169l15.382-40.269
			c1.48-3.889,5.177-6.486,9.337-6.562h142.5c4.168,0.095,7.861,2.709,9.337,6.608l15.383,40.13
			c4.489,11.57,15.604,19.213,28.014,19.262h77.35c5.589,0.079,10.098,4.596,10.167,10.185L444,360.678z"/>
	</g>
</g>
<g>
	<g>
		<path d="M253.5,189.751c-49.535-0.001-89.691,40.155-89.692,89.69s40.155,89.691,89.69,89.692s89.691-40.155,89.692-89.69
			c0,0,0-0.001,0-0.001C343.134,229.93,303.012,189.807,253.5,189.751z M323.19,279.442c-0.041,38.472-31.218,69.65-69.69,69.694
			v-0.003c-38.489,0.001-69.691-31.201-69.692-69.69c-0.001-38.489,31.201-69.691,69.69-69.692
			C291.987,209.75,323.189,240.952,323.19,279.442C323.19,279.441,323.19,279.442,323.19,279.442z"/>
	</g>
</g>
<g>
	<g>
		<path d="M87,183.351H63c-5.523,0-10,4.477-10,10s4.477,10,10,10h24c5.523,0,10-4.477,10-10S92.523,183.351,87,183.351z"/>
	</g>
</g>
<g>
</g>
<g>
</g>
<g>
</g>
<g>
</g>
<g>
</g>
<g>
</g>
<g>
</g>
<g>
</g>
<g>
</g>
<g>
</g>
<g>
</g>
<g>
</g>
<g>
</g>
<g>
</g>
<g>
</g>
</svg>
