<?xml version="1.0" encoding="iso-8859-1"?>
<!-- Generator: Adobe Illustrator 19.0.0, SVG Export Plug-In . SVG Version: 6.00 Build 0)  -->
<svg version="1.1" id="Capa_1" xmlns="http://www.w3.org/2000/svg" xmlns:xlink="http://www.w3.org/1999/xlink" x="0px" y="0px"
	 viewBox="0 0 512 512" style="enable-background:new 0 0 512 512;" xml:space="preserve">
<g>
	<g>
		<path d="M455.541,195.136l-192-192c-4.16-4.16-10.923-4.16-15.083,0l-192,192c-4.16,4.16-4.16,10.923,0,15.083
			c4.16,4.16,10.923,4.16,15.083,0L255.989,25.749l184.448,184.469c2.091,2.069,4.821,3.115,7.552,3.115
			c2.731,0,5.461-1.045,7.552-3.115C459.701,206.059,459.701,199.296,455.541,195.136z"/>
	</g>
</g>
<g>
	<g>
		<path d="M255.989,0c-5.888,0-10.667,4.779-10.667,10.667v490.667c0,5.888,4.779,10.667,10.667,10.667s10.667-4.779,10.667-10.667
			V10.667C266.656,4.779,261.877,0,255.989,0z"/>
	</g>
</g>
<g>
</g>
<g>
</g>
<g>
</g>
<g>
</g>
<g>
</g>
<g>
</g>
<g>
</g>
<g>
</g>
<g>
</g>
<g>
</g>
<g>
</g>
<g>
</g>
<g>
</g>
<g>
</g>
<g>
</g>
</svg>
